<?xml version="1.0" encoding="UTF-8" standalone="no"?>
<!-- Created with Inkscape (http://www.inkscape.org/) -->

<svg
   xmlns:dc="http://purl.org/dc/elements/1.1/"
   xmlns:cc="http://creativecommons.org/ns#"
   xmlns:rdf="http://www.w3.org/1999/02/22-rdf-syntax-ns#"
   xmlns:svg="http://www.w3.org/2000/svg"
   xmlns="http://www.w3.org/2000/svg"
   xmlns:sodipodi="http://sodipodi.sourceforge.net/DTD/sodipodi-0.dtd"
   xmlns:inkscape="http://www.inkscape.org/namespaces/inkscape"
   width="210mm"
   height="297mm"
   viewBox="0 0 744.09448819 1052.3622047"
   id="svg2"
   version="1.1"
   inkscape:version="0.91 r13725"
   sodipodi:docname="drawing.svg">
  <defs
     id="defs4" />
  <sodipodi:namedview
     id="base"
     pagecolor="#ffffff"
     bordercolor="#666666"
     borderopacity="1.0"
     inkscape:pageopacity="0.0"
     inkscape:pageshadow="2"
     inkscape:zoom="0.49497475"
     inkscape:cx="-238.79124"
     inkscape:cy="374.19845"
     inkscape:document-units="px"
     inkscape:current-layer="g10537"
     showgrid="false"
     inkscape:window-width="1616"
     inkscape:window-height="1026"
     inkscape:window-x="64"
     inkscape:window-y="0"
     inkscape:window-maximized="1" />
  <metadata
     id="metadata7">
    <rdf:RDF>
      <cc:Work
         rdf:about="">
        <dc:format>image/svg+xml</dc:format>
        <dc:type
           rdf:resource="http://purl.org/dc/dcmitype/StillImage" />
      </cc:Work>
    </rdf:RDF>
  </metadata>
  <g
     inkscape:label="Vrstva 1"
     inkscape:groupmode="layer"
     id="layer1">
    <g
       id="g10537"
       inkscape:export-xdpi="90"
       inkscape:export-ydpi="90">
      <g
         id="g10526"
         inkscape:export-xdpi="90"
         inkscape:export-ydpi="90">
        <path
           style="fill:#e6e0e0;fill-opacity:1;fill-rule:evenodd;stroke:#000000;stroke-width:2.38700008;stroke-linecap:butt;stroke-linejoin:miter;stroke-miterlimit:4;stroke-dasharray:7.161, 2.387;stroke-dashoffset:0;stroke-opacity:1"
           d="m 56.428571,155.93364 47.142859,0 0,102.85715 40.71428,0 0,102.85714 45.71429,0 0,102.85714 46.42857,0 0,494.28571 -184.999999,0 z"
           id="path11335"
           inkscape:connector-curvature="0"
           sodipodi:nodetypes="ccccccccccc" />
        <path
           style="opacity:1;fill:#a7a7a7;fill-opacity:1;stroke:#000000;stroke-width:2.38700008;stroke-linejoin:round;stroke-miterlimit:4;stroke-dasharray:none;stroke-dashoffset:0;stroke-opacity:1"
           d="m 48.925226,155.79018 0,0.0254 -0.19141,0 0,382.13867 -0.12891,0 0,17.26367 0.12891,0 0,102.0254 0.19141,0 0,306.81336 133.501954,0 0,0.0114 60,0 0,-499.68027 -15.36133,0 0,484.16406 -29.27929,0 0,-484.16406 -0.0645,0 0,-102.85743 -15.36133,0 0,484.16407 -29.27929,0 0,-85.59375 0.007,0 0,-501.42774 -15.39131,0 0,102.85742 0.0253,0 0,381.30664 -28.92578,0 0,-484.16406 -0.0625,0 0,-102.85742 -15.361334,0 0,484.16406 -29.27929,0 0,-84.76172 0.19336,0 0,-399.42773 -15.36133,0 z"
           id="rect11291"
           inkscape:connector-curvature="0"
           sodipodi:nodetypes="cccccccccccccccccccccccccccccccccccccccccc" />
        <rect
           style="opacity:1;fill:#df183c;fill-opacity:1;stroke:none;stroke-width:2.38700008;stroke-linejoin:round;stroke-miterlimit:4;stroke-dasharray:7.161, 2.387;stroke-dashoffset:0;stroke-opacity:1"
           id="rect11356"
           width="12.857142"
           height="6.7857141"
           x="228.21429"
           y="527.54077" />
        <rect
           y="553.54077"
           x="183.5"
           height="6.7857141"
           width="12.857142"
           id="rect11358"
           style="opacity:1;fill:#df183c;fill-opacity:1;stroke:none;stroke-width:2.38700008;stroke-linejoin:round;stroke-miterlimit:4;stroke-dasharray:7.161, 2.387;stroke-dashoffset:0;stroke-opacity:1" />
        <rect
           y="-217.57397"
           x="949.84424"
           height="6.7857141"
           width="12.857142"
           id="rect11360"
           style="opacity:1;fill:#df183c;fill-opacity:1;stroke:none;stroke-width:2.38700008;stroke-linejoin:round;stroke-miterlimit:4;stroke-dasharray:7.161, 2.387;stroke-dashoffset:0;stroke-opacity:1"
           transform="matrix(0,1,-1,0,0,0)" />
        <rect
           style="opacity:1;fill:#23df18;fill-opacity:1;stroke:none;stroke-width:2.38700008;stroke-linejoin:round;stroke-miterlimit:4;stroke-dasharray:7.161, 2.387;stroke-dashoffset:0;stroke-opacity:1"
           id="rect11362"
           width="11.111678"
           height="559.31226"
           x="207.14256"
           y="380.21405" />
        <rect
           transform="matrix(0,1,-1,0,0,0)"
           style="opacity:1;fill:#1825df;fill-opacity:1;stroke:none;stroke-width:2.38700008;stroke-linejoin:round;stroke-miterlimit:4;stroke-dasharray:7.161, 2.387;stroke-dashoffset:0;stroke-opacity:1"
           id="rect11364"
           width="8.2142859"
           height="8.2142859"
           x="872.20135"
           y="-226.1454" />
        <rect
           y="-207.07396"
           x="900.20135"
           height="8.2142859"
           width="8.2142859"
           id="rect11366"
           style="opacity:1;fill:#1825df;fill-opacity:1;stroke:none;stroke-width:2.38700008;stroke-linejoin:round;stroke-miterlimit:4;stroke-dasharray:7.161, 2.387;stroke-dashoffset:0;stroke-opacity:1"
           transform="matrix(0,1,-1,0,0,0)" />
        <rect
           y="-947.48712"
           x="-216.85968"
           height="8.2142859"
           width="8.2142859"
           id="rect11368"
           style="opacity:1;fill:#1825df;fill-opacity:1;stroke:none;stroke-width:2.38700008;stroke-linejoin:round;stroke-miterlimit:4;stroke-dasharray:7.161, 2.387;stroke-dashoffset:0;stroke-opacity:1"
           transform="scale(-1,-1)" />
        <rect
           transform="scale(-1,-1)"
           style="opacity:1;fill:#1825df;fill-opacity:1;stroke:none;stroke-width:2.38700008;stroke-linejoin:round;stroke-miterlimit:4;stroke-dasharray:7.161, 2.387;stroke-dashoffset:0;stroke-opacity:1"
           id="rect11370"
           width="8.2142859"
           height="8.2142859"
           x="-216.8597"
           y="-380.73724" />
      </g>
    </g>
    <g
       id="g11345"
       inkscape:export-xdpi="90"
       inkscape:export-ydpi="90">
      <rect
         transform="scale(-1,-1)"
         style="opacity:1;fill:#1825df;fill-opacity:1;stroke:none;stroke-width:2.38700008;stroke-linejoin:round;stroke-miterlimit:4;stroke-dasharray:7.161, 2.387;stroke-dashoffset:0;stroke-opacity:1"
         id="rect11510"
         width="8.2142859"
         height="14.642858"
         x="-501.47415"
         y="-439.3063" />
      <rect
         transform="matrix(0,-1,1,0,0,0)"
         style="opacity:1;fill:#1825df;fill-opacity:1;stroke:none;stroke-width:2.38700008;stroke-linejoin:round;stroke-miterlimit:4;stroke-dasharray:7.161, 2.387;stroke-dashoffset:0;stroke-opacity:1"
         id="rect11526"
         width="8.2142859"
         height="14.642858"
         x="-301.74429"
         y="627.95428" />
      <rect
         y="352.15976"
         x="-349.72397"
         height="14.642858"
         width="8.2142859"
         id="rect11524"
         style="opacity:1;fill:#1825df;fill-opacity:1;stroke:none;stroke-width:2.38700008;stroke-linejoin:round;stroke-miterlimit:4;stroke-dasharray:7.161, 2.387;stroke-dashoffset:0;stroke-opacity:1"
         transform="matrix(0,-1,1,0,0,0)" />
      <rect
         y="-82.217384"
         x="-491.37262"
         height="14.642858"
         width="8.2142859"
         id="rect11530"
         style="opacity:1;fill:#1825df;fill-opacity:1;stroke:none;stroke-width:2.38700008;stroke-linejoin:round;stroke-miterlimit:4;stroke-dasharray:7.161, 2.387;stroke-dashoffset:0;stroke-opacity:1"
         transform="scale(-1,-1)" />
      <path
         sodipodi:nodetypes="ccccccccc"
         inkscape:connector-curvature="0"
         style="opacity:1;fill:#e6e0e0;fill-opacity:1;stroke:#000000;stroke-width:2.36599994;stroke-linejoin:round;stroke-miterlimit:4;stroke-dasharray:4.73199987, 2.36599994;stroke-dashoffset:0;stroke-opacity:1"
         d="m 342.43219,328.38925 0,-271.730485 311.65625,0 0,271.730485 -12.09765,0 0,-258.642585 -287.46094,0 0,258.642585 z"
         id="path11528" />
      <path
         sodipodi:nodetypes="ccccccccc"
         inkscape:connector-curvature="0"
         id="rect11460"
         d="m 342.43219,180.51591 0,271.73047 311.65625,0 0,-271.73047 -12.09765,0 0,258.64257 -287.46094,0 0,-258.64257 z"
         style="opacity:1;fill:#a7a7a7;fill-opacity:1;stroke:#000000;stroke-width:2.36599994;stroke-linejoin:round;stroke-miterlimit:4;stroke-dasharray:none;stroke-dashoffset:0;stroke-opacity:1" />
      <rect
         ry="0"
         transform="matrix(0,-1,-1,0,0,0)"
         y="-630.75458"
         x="-426.34213"
         height="265.427"
         width="346.19238"
         id="rect11376-3"
         style="opacity:1;fill:#23df18;fill-opacity:1;stroke:none;stroke-width:1.29694235;stroke-linejoin:round;stroke-miterlimit:4;stroke-dasharray:none;stroke-dashoffset:0;stroke-opacity:1" />
      <rect
         y="312.36221"
         x="343.57141"
         height="6.4285712"
         width="9.6428576"
         id="rect11339"
         style="opacity:1;fill:#df183c;fill-opacity:1;stroke:none;stroke-width:2.36599994;stroke-linejoin:round;stroke-miterlimit:4;stroke-dasharray:4.73199987, 2.36599994;stroke-dashoffset:0;stroke-opacity:1" />
      <rect
         style="opacity:1;fill:#df183c;fill-opacity:1;stroke:none;stroke-width:2.36599994;stroke-linejoin:round;stroke-miterlimit:4;stroke-dasharray:4.73199987, 2.36599994;stroke-dashoffset:0;stroke-opacity:1"
         id="rect11341"
         width="9.6428576"
         height="6.4285712"
         x="643.21429"
         y="321.2908" />
      <rect
         transform="matrix(0,1,-1,0,0,0)"
         y="-578.57141"
         x="440.39795"
         height="6.4285712"
         width="10.535715"
         id="rect11343"
         style="opacity:1;fill:#df183c;fill-opacity:1;stroke:none;stroke-width:2.36599994;stroke-linejoin:round;stroke-miterlimit:4;stroke-dasharray:4.73199987, 2.36599994;stroke-dashoffset:0;stroke-opacity:1" />
    </g>
    <g
       id="g10543"
       inkscape:export-xdpi="90"
       inkscape:export-ydpi="90">
      <path
         id="rect11372"
         d="m 418.35724,553.27664 c -12.86248,0 -23.2168,10.35434 -23.2168,23.21679 l 0,342.15821 c 0,12.86247 10.35432,23.21681 23.2168,23.21679 l 12.74805,0 0,0.11133 140.87109,0 0,-0.11133 3.07617,0 c 12.86248,0 23.2168,-10.35432 23.2168,-23.21679 l 0,-342.15821 c 0,-12.86245 -10.35432,-23.21679 -23.2168,-23.21679 l -14.30078,0 c -0.60689,0 -1.20593,0.0308 -1.80078,0.0762 l -29.61133,0 c -0.59479,-0.0453 -1.19393,-0.0762 -1.80078,-0.0762 l -14.30078,0 c -0.60675,0 -1.20607,0.0309 -1.80078,0.0762 l -29.59375,0 c -0.59472,-0.0453 -1.19403,-0.0762 -1.80078,-0.0762 l -14.30078,0 c -0.60803,0 -1.20873,0.0307 -1.80469,0.0762 l -29.47461,0 c -0.59622,-0.0455 -1.19638,-0.0762 -1.80469,-0.0762 l -14.30078,0 z m 0.008,13.15234 14.28516,0 c 5.13914,0 9.3414,3.84751 9.9082,8.83008 -0.0212,0.40844 -0.0332,0.82048 -0.0332,1.23437 l 0,342.15821 c 0,0.41389 0.012,0.82593 0.0332,1.23437 -0.5668,4.98256 -4.76906,8.83008 -9.9082,8.83008 l -14.28516,0 c -5.52821,0 -9.97851,-4.4503 -9.97851,-9.97851 l 0,-342.33008 c 0,-5.52822 4.4503,-9.97852 9.97851,-9.97852 z m 47.38477,0 14.28515,0 c 5.52821,0 9.97852,4.4503 9.97852,9.97852 l 0,342.33008 c 0,5.52821 -4.45031,9.97851 -9.97852,9.97851 l -14.28515,0 c -5.13914,0 -9.33945,-3.84752 -9.90625,-8.83008 0.0212,-0.40843 0.0312,-0.82048 0.0312,-1.23437 l 0,-342.15821 c 0,-0.41389 -0.0101,-0.82593 -0.0312,-1.23437 0.5668,-4.98257 4.76711,-8.83008 9.90625,-8.83008 z m 47.49609,0 14.28516,0 c 5.52821,0 9.97851,4.4503 9.97851,9.97852 l 0,342.33008 c 0,5.52821 -4.4503,9.97851 -9.97851,9.97851 l -14.28516,0 c -5.52821,0 -9.97851,-4.4503 -9.97851,-9.97851 l 0,-342.33008 c 0,-5.52822 4.4503,-9.97852 9.97851,-9.97852 z m 47.51563,0 14.28515,0 c 5.52821,0 9.97852,4.4503 9.97852,9.97852 l 0,342.33008 c 0,5.52821 -4.45031,9.97851 -9.97852,9.97851 l -14.28515,0 c -5.52821,0 -9.97852,-4.4503 -9.97852,-9.97851 l 0,-342.33008 c 0,-5.52822 4.45031,-9.97852 9.97852,-9.97852 z"
         style="opacity:1;fill:#a7a7a7;fill-opacity:1;stroke:#000000;stroke-width:2.36583519;stroke-linejoin:round;stroke-miterlimit:4;stroke-dasharray:none;stroke-dashoffset:0;stroke-opacity:1"
         inkscape:connector-curvature="0" />
      <path
         style="color:#000000;font-style:normal;font-variant:normal;font-weight:normal;font-stretch:normal;font-size:medium;line-height:normal;font-family:sans-serif;text-indent:0;text-align:start;text-decoration:none;text-decoration-line:none;text-decoration-style:solid;text-decoration-color:#000000;letter-spacing:normal;word-spacing:normal;text-transform:none;direction:ltr;block-progression:tb;writing-mode:lr-tb;baseline-shift:baseline;text-anchor:start;white-space:normal;clip-rule:nonzero;display:inline;overflow:visible;visibility:visible;opacity:1;isolation:auto;mix-blend-mode:normal;color-interpolation:sRGB;color-interpolation-filters:linearRGB;solid-color:#000000;solid-opacity:1;fill:#000000;fill-opacity:1;fill-rule:nonzero;stroke:none;stroke-width:2.36583519;stroke-linecap:butt;stroke-linejoin:round;stroke-miterlimit:4;stroke-dasharray:none;stroke-dashoffset:0;stroke-opacity:1;color-rendering:auto;image-rendering:auto;shape-rendering:auto;text-rendering:auto;enable-background:accumulate"
         d="m 522.35061,552.09418 0,2.36523 5.32617,0 c 12.22764,0 22.0332,9.80559 22.0332,22.0332 l 0,342.15821 c 0,12.22763 -9.80556,22.03515 -22.0332,22.03515 l -3.07617,0 c -0.17214,4.3e-4 -0.34211,0.0384 -0.49805,0.11133 l -1.75195,0 0,2.36524 2.25,0 c 0.17214,-4.3e-4 0.3421,-0.0384 0.49804,-0.11133 l 2.57813,0 c 13.49731,0 24.40039,-10.90309 24.40039,-24.40039 l 0,-342.15821 c 0,-13.49728 -10.90308,-24.39843 -24.40039,-24.39843 l -5.32617,0 z"
         id="path10537"
         inkscape:connector-curvature="0" />
      <path
         inkscape:connector-curvature="0"
         id="path10539"
         d="m 474.85569,552.09418 0,2.36523 5.32617,0 c 12.22764,0 22.0332,9.80559 22.0332,22.0332 l 0,342.15821 c 0,12.22763 -9.80556,22.03515 -22.0332,22.03515 l -3.07617,0 c -0.17214,4.3e-4 -0.34211,0.0384 -0.49805,0.11133 l -1.75195,0 0,2.36524 2.25,0 c 0.17214,-4.3e-4 0.3421,-0.0384 0.49804,-0.11133 l 2.57813,0 c 13.49731,0 24.40039,-10.90309 24.40039,-24.40039 l 0,-342.15821 c 0,-13.49728 -10.90308,-24.39843 -24.40039,-24.39843 l -5.32617,0 z"
         style="color:#000000;font-style:normal;font-variant:normal;font-weight:normal;font-stretch:normal;font-size:medium;line-height:normal;font-family:sans-serif;text-indent:0;text-align:start;text-decoration:none;text-decoration-line:none;text-decoration-style:solid;text-decoration-color:#000000;letter-spacing:normal;word-spacing:normal;text-transform:none;direction:ltr;block-progression:tb;writing-mode:lr-tb;baseline-shift:baseline;text-anchor:start;white-space:normal;clip-rule:nonzero;display:inline;overflow:visible;visibility:visible;opacity:1;isolation:auto;mix-blend-mode:normal;color-interpolation:sRGB;color-interpolation-filters:linearRGB;solid-color:#000000;solid-opacity:1;fill:#000000;fill-opacity:1;fill-rule:nonzero;stroke:none;stroke-width:2.36583519;stroke-linecap:butt;stroke-linejoin:round;stroke-miterlimit:4;stroke-dasharray:none;stroke-dashoffset:0;stroke-opacity:1;color-rendering:auto;image-rendering:auto;shape-rendering:auto;text-rendering:auto;enable-background:accumulate" />
      <path
         style="color:#000000;font-style:normal;font-variant:normal;font-weight:normal;font-stretch:normal;font-size:medium;line-height:normal;font-family:sans-serif;text-indent:0;text-align:start;text-decoration:none;text-decoration-line:none;text-decoration-style:solid;text-decoration-color:#000000;letter-spacing:normal;word-spacing:normal;text-transform:none;direction:ltr;block-progression:tb;writing-mode:lr-tb;baseline-shift:baseline;text-anchor:start;white-space:normal;clip-rule:nonzero;display:inline;overflow:visible;visibility:visible;opacity:1;isolation:auto;mix-blend-mode:normal;color-interpolation:sRGB;color-interpolation-filters:linearRGB;solid-color:#000000;solid-opacity:1;fill:#000000;fill-opacity:1;fill-rule:nonzero;stroke:none;stroke-width:2.36583519;stroke-linecap:butt;stroke-linejoin:round;stroke-miterlimit:4;stroke-dasharray:none;stroke-dashoffset:0;stroke-opacity:1;color-rendering:auto;image-rendering:auto;shape-rendering:auto;text-rendering:auto;enable-background:accumulate"
         d="m 427.36077,552.09418 0,2.36523 5.32617,0 c 12.22764,0 22.0332,9.80559 22.0332,22.0332 l 0,342.15821 c 0,12.22763 -9.80556,22.03515 -22.0332,22.03515 l -3.07617,0 c -0.17214,4.3e-4 -0.34211,0.0384 -0.49805,0.11133 l -1.75195,0 0,2.36524 2.25,0 c 0.17214,-4.3e-4 0.3421,-0.0384 0.49804,-0.11133 l 2.57813,0 c 13.49731,0 24.40039,-10.90309 24.40039,-24.40039 l 0,-342.15821 c 0,-13.49728 -10.90308,-24.39843 -24.40039,-24.39843 l -5.32617,0 z"
         id="path10541"
         inkscape:connector-curvature="0" />
    </g>
  </g>
</svg>
